MomentArm_ankle_angle_r
version=1
nRows=10
nColumns=3
inDegrees=no

This analysis gathers basic information about muscles during a simulation (e.g., forces, tendon lengths, moment arms, etc).
Units are S.I. units (second, meters, Newtons, ...)
If the header above contains a line with 'inDegrees', this indicates whether rotational values are in degrees (yes) or radians (no).

endheader
time	soleus_r	tib_ant_r
      0.00000000	     -0.01081635	      0.00988890
      0.01000000	     -0.02882852	      0.01888818
      0.02000000	     -0.04151246	      0.02718044
      0.03000000	     -0.04763005	      0.03438330
      0.04000000	     -0.04746959	      0.04000763
      0.05000000	     -0.04206261	      0.04322080
      0.06000000	     -0.03264974	      0.04199720
      0.07000000	     -0.02045746	      0.03016252
      0.08000000	     -0.00664700	     -0.00219472
      0.09000000	      0.00767088	     -0.03240871
